<svg xmlns="http://www.w3.org/2000/svg" viewBox="0 0 900 900">
    <g data-name="Layer 1">
        <path
            d="M132.066 378.93c.124-18.379 3.496-36.254 8.256-53.927 4.9-18.194 12.484-35.257 21.78-51.573a8.165 8.165 0 00.63-7.817c-9.63-26.012-15.655-52.8-16.608-80.618 1.846-5.585.67-11.33.749-16.99.055-4 1.074-8.149-.775-12.054.463-19.907 3.889-39.367 8.987-58.554 1.998-7.52 4.036-15.053 7.852-23.167 1.027 7.666 1.802 14.401 2.848 21.094 7.815 50.015 30.32 92.437 66.224 127.924 6.985 6.904 14.671 12.995 22.058 19.435 1.416 1.234 2.328.451 3.657.142-6.96-14.282-14.425-28.32-20.574-42.995-1.378-3.289-.897-4.96 2.148-6.822 20.56-12.57 42.389-22.15 65.813-27.847 12.691-3.086 25.536-5.532 38.664-5.99 1.256 1.124 2.8.831 4.261.828q17.618-.035 35.236-.108c14.738 1.8 29.264 4.145 43.577 8.649a255.297 255.297 0 0141.76 17.07c4.416 2.306 8.667 4.925 13.028 7.338 2.73 1.51 3.728 3.435 2.328 6.498-6.787 14.845-13.128 29.907-21.849 43.953 1.882 1.801 3.101.043 4.286-.86a238.844 238.844 0 0057.38-62.277c6.334-9.973 12.258-20.334 16.545-31.154 6.567-16.57 12.283-33.622 14.52-51.537.881-7.07 2.012-14.11 3.61-21.259 9.597 25.287 15.963 51.214 15.68 78.509-.044 10.732-.275 21.469.002 32.193.07 2.687-2.071 5.34-.115 8.002a255.567 255.567 0 01-8.787 49.166 195.636 195.636 0 01-6.894 20.838c-1.625 3.999-.677 7.338 1.174 10.376 16.79 27.545 25.156 57.74 28.543 89.529a217.453 217.453 0 01-2.212 61.248c-4.907 27.664-14.117 53.85-28.753 77.935-26.277 43.239-62.57 75.083-109.373 94.472-42.35 17.543-86.339 22.157-131.213 12.957-66.33-13.597-117.345-49.703-152.63-107.551-19.436-31.865-29.484-66.777-31.87-103.951-.085-1.322.029-2.657.05-3.986a33.086 33.086 0 00.007-17.12zm392.609-11.02c-2.058 4.647-3.393 8.387-5.288 11.818-10.212 18.48-26.46 30.407-44.4 40.428-19.21 10.732-39.776 18.055-60.814 24.234-5.691 1.671-11.228 3.872-17.189 4.819 20.197 8.033 40.848 12.65 62.518 10.41 11.94-1.234 23.154-5.067 32.572-12.736 24.728-20.138 31.037-47.989 32.6-78.972zm-328.057 1.792a126.041 126.041 0 007.152 41.168c8.95 25.416 28.651 48.699 65.797 49.258 17.472.263 43.796-5.011 54.955-11.484a104.326 104.326 0 01-17.498-4.07c-21.288-6.237-42.009-13.795-61.411-24.593-21.267-11.836-39.967-26.316-48.995-50.28z"
            fill="red" />
        <path
            d    = "M231.992 727.93c8.947-.688 17.99-.79 26.815-2.223a284.586 284.586 0 0029.47-6.779c28.072-7.695 54.506-19.474 79.941-33.438 34.159-18.753 66.697-40.062 98.467-62.64 36.356-25.837 69.508-55.64 104.548-83.093 17.202-13.478 34.627-26.618 53.399-37.905 36.357-21.86 75.023-35.523 118.094-34.088a185.27 185.27 0 0128.245 3.318c1.781.336 3.51 1.067 6.037.405l-24.743-38.89c56.846 14.667 106.222 38.634 142.218 86.588-5.488 1.84-9.608.4-13.362-.293a252.275 252.275 0 00-105.524 2.39c-9.402 2.243-18.394 5.743-27.555 8.725l.042.045c.368-3.513 3.09-5.684 4.916-8.31 6.974-10.033 14.166-19.914 21.195-29.91.956-1.36 2.899-2.547 1.673-4.746l.995-.748c-.098-.097-.197-.28-.296-.28q-11.631-.02-23.262-.011l.01 1.06h6.89c-13.58 1.429-26.963 3.746-39.982 8.065-21.475 7.123-41.064 17.857-59.445 30.86-28.394 20.088-53.704 43.842-79.153 67.39-19.36 17.913-38.208 36.378-57.503 54.363-16.836 15.693-33.87 31.173-51.27 46.25a666.905 666.905 0 01-68.111 52.255c-36.514 24.202-74.841 44.679-117.71 55.35-47.06 11.714-93.701 10.158-139.839-4.972-26.948-8.838-51.201-22.21-71.445-42.346-25.732-25.594-39.253-56.957-43.51-92.615-5.89-49.326 11.85-90.092 45.926-124.63a107.77 107.77 0 0128.9-21.154 69.897 69.897 0 017.992-2.881c-.443 3.265-2.633 4.94-4.266 6.913-34.604 41.803-40.676 87.65-19.118 137.19a101.796 101.796 0 0027.813 37.136c20.183 17.166 43.886 26.285 69.721 30.704 8.885 1.52 17.889 1.632 26.778 2.945l-6.744.423.06.43h29.52l.012-.492z"
            fill = "green" />
        <path
            d="M383.271 159.89q-17.617.06-35.235.109c-1.462.003-3.006.296-4.262-.829 13.185-.912 26.363-1.31 39.497.72zm190.753 35.125c-1.956-2.662.185-5.314.115-8.001-.277-10.725-.046-21.462-.002-32.194.922.392 1.022 1.215 1.028 2.048.078 12.73.795 25.478-1.141 38.147zM231.992 727.93l6.839.36-.013.493H209.3l-.06-.43 6.744-.423zm-85.895-571.98c1.85 3.906.83 8.055.775 12.055-.078 5.66 1.098 11.405-.748 16.99a239.988 239.988 0 01-.026-29.044zm614.109 331.157h-6.89l-.01-1.06q11.63 0 23.261.012c.1 0 .198.182.297.279l-.996.748zM132.066 378.93a33.086 33.086 0 01-.008 17.119l.008-17.12z"
            fill="red" />
        <path fill="#eb1c25" d="M748.042 530.007l-.247.157.288-.112-.041-.045z" />
        <path
            d="M524.675 367.91c-1.564 30.984-7.873 58.835-32.601 78.973-9.418 7.67-20.633 11.502-32.572 12.737-21.67 2.24-42.321-2.378-62.518-10.411 5.961-.947 11.498-3.148 17.189-4.819 21.038-6.179 41.603-13.502 60.815-24.234 17.94-10.02 34.187-21.948 44.398-40.428 1.896-3.43 3.23-7.171 5.289-11.817zm-328.057 1.792c9.028 23.963 27.728 38.443 48.995 50.279 19.402 10.798 40.122 18.356 61.411 24.593a104.326 104.326 0 0017.498 4.07c-11.159 6.473-37.483 11.747-54.955 11.484-37.146-.56-56.847-23.842-65.797-49.258a126.041 126.041 0 01-7.152-41.168z"
            fill="#fefdfd" />
    </g>
</svg>