<svg width="1024" height="1024" xmlns="http://www.w3.org/2000/svg">
  <defs>
    <linearGradient id="gradient-vertical" x1="0%" y1="0%" x2="0%" y2="100%">
      <stop offset="0%" style="stop-color:#012c42; stop-opacity:1" /> 
      <stop offset="20%" style="stop-color:#000000; stop-opacity:1" /> 
      <stop offset="40%" style="stop-color:#080e79; stop-opacity:1" />
      <stop offset="60%" style="stop-color:#9f1c5c; stop-opacity:1" />
      <stop offset="80%" style="stop-color:#ff4e3a; stop-opacity:1" /> 
      <stop offset="100%" style="stop-color:#ee3423; stop-opacity:1" />
    </linearGradient>
  </defs>
  <rect x="0" y="0" width="1024" height="1024" rx="220" ry="220" fill="url(#gradient-vertical)" />
    <path fill="#FAF9E1" d="M182 162c31,-2 62,22 64,56 1,17 -7,35 -15,45 -8,9 -22,17 -40,19 -19,3 -34,-6 -45,-15 -11,-9 -19,-20 -19,-41 -1,-28 11,-45 32,-58 6,-4 14,-6 23,-7zm87 -1c11,-2 28,-7 39,-10 28,-8 52,-12 80,-16 30,-5 59,-7 89,-8 58,-1 78,0 138,7 36,4 46,9 78,18 43,13 95,37 129,64l14 10c9,8 18,14 26,22 3,3 10,9 12,13 -5,-2 -11,-5 -16,-8 -5,-3 -11,-4 -16,-6 -11,-4 -22,-8 -33,-12 -48,-18 -98,-27 -150,-31 -36,-3 -49,-4 -86,-4 -50,0 -114,7 -162,20 -37,10 -66,18 -101,34l-32 14c8,-20 11,-36 10,-59 -1,-10 -3,-19 -7,-27 -3,-6 -10,-16 -12,-22zm-151 414c2,99 0,199 1,299 0,3 -2,95 0,99l2 0 0 11c4,1 0,0 2,2 2,3 2,-1 2,2 0,0 0,1 1,2 4,0 11,4 15,6 5,2 11,6 15,7l2 -1c2,-3 0,-151 -1,-168 -1,-57 0,-114 0,-171 0,-37 -2,-332 1,-341 2,-1 0,-1 2,0 0,0 2,1 2,1 2,1 3,1 6,1 19,3 25,0 39,-1 -1,12 -1,71 -1,88l0 260c-1,115 2,230 1,345l35 0c4,-3 0,0 2,-2 2,-2 -2,0 2,-2l1 -28c0,-30 -2,-57 -3,-85 0,-9 -2,-14 7,-11 4,2 5,4 8,6 2,1 3,1 5,2 11,6 5,5 25,13 7,3 15,7 22,9 23,8 33,6 56,6 113,-1 228,1 342,1l26 -1c1,0 2,0 4,0 20,-2 52,-15 69,-24 57,-30 92,-83 102,-147 6,-36 1,-84 2,-122 1,-17 0,-34 0,-51 0,-51 1,-102 -1,-153 -1,-34 -16,-63 -32,-90 -1,-2 -1,-2 -2,-4 -3,-6 -10,-6 -16,-10 -2,-1 -3,-2 -5,-2 -2,-1 -2,-1 -4,-2 -3,-1 -6,-2 -10,-3 -8,-1 -14,-2 -24,-2 -12,17 14,64 17,85 1,11 2,22 3,32 3,27 1,111 1,144 0,10 1,141 0,152 -2,20 -10,43 -18,58 -8,16 -22,30 -36,40 -11,8 -37,21 -54,23 -24,3 -49,2 -75,2l-228 0c-25,0 -51,1 -76,0 -24,0 -45,-6 -62,-15 -16,-9 -34,-21 -44,-32 -2,-2 -2,-3 -3,-7 -1,-24 0,-41 0,-65 0,-49 -1,-105 0,-153 0,-24 1,-51 0,-75 0,-16 0,-32 0,-48 0,-21 -2,-124 3,-137 3,1 1,1 5,2 2,0 5,0 7,0 9,-1 64,-21 73,-25 29,-13 97,-33 132,-36 18,-2 33,-5 50,-7 36,-4 70,-4 107,-3 33,1 69,7 100,12 8,1 15,3 23,5 23,5 48,7 68,16 21,9 20,8 41,15 15,5 25,11 38,18 12,6 25,13 38,18 10,3 32,15 41,15 2,-22 -27,-57 -36,-72 -9,-13 -37,-48 -48,-59 -14,-14 -43,-38 -58,-49 -22,-15 -43,-28 -68,-40 -23,-10 -53,-22 -79,-28 -28,-7 -61,-14 -91,-16 -63,-5 -140,-6 -202,5 -31,6 -60,9 -89,18 -14,5 -28,8 -42,12 -16,5 -14,7 -20,4 -6,-4 -10,-6 -18,-8 -13,-4 -35,-5 -49,-3 -14,2 -29,10 -37,17 -3,2 -5,4 -7,7 -3,2 -5,4 -7,6 -4,4 -8,9 -12,15 -7,10 -13,22 -17,36 -10,33 -3,71 16,97 7,9 18,16 17,22 -5,37 -3,118 -3,158 0,35 -1,70 -1,106z"/>
    <path fill="#FAF9E1" d="M519 391c41,-3 84,16 110,47 12,15 11,11 21,31 8,14 13,35 14,55 3,47 -14,77 -36,103 -11,13 -22,20 -40,30 -15,8 -34,14 -54,15 -28,2 -59,-10 -82,-23 -32,-19 -63,-62 -64,-110 -1,-24 3,-40 10,-60 3,-9 8,-15 12,-23 5,-8 9,-14 14,-20 7,-6 11,-11 18,-17 22,-17 47,-26 77,-28zm-198 156c2,9 2,21 6,39 9,32 28,65 50,87 19,20 26,26 51,40 17,10 45,22 66,25 31,4 53,3 83,-3 10,-2 25,-8 34,-12 49,-24 94,-64 113,-116 6,-11 13,-46 13,-61 0,-28 -1,-40 -6,-68 -2,-9 -4,-15 -7,-22 -17,-44 -49,-80 -87,-105l-9 -6c-88,-51 -197,-24 -255,45 -13,16 -27,34 -35,54 -5,13 -12,30 -14,45 -3,17 -3,37 -2,56z"/>

</svg>
