<svg xmlns="http://www.w3.org/2000/svg" width="1024px" height="1024px" version="1.1" viewBox="0 0 1024 1024">
  <g>
   <path fill="#F35960" d="M491 683l67 1c0,0 0,1 0,1 -29,114 58,311 47,338l313 0c-5,-172 49,-306 -4,-497 -34,-122 -102,-207 -132,-305 -20,-64 -16,-137 -6,-217l-482 1c4,30 15,57 14,88 -2,46 8,98 -21,128 -80,83 -150,286 -177,389 -50,192 0,245 -9,416l343 0c0,-1 0,1 0,0 30,-133 47,-208 49,-341z"/>
   <path id="_1" fill="#ED3237" d="M558 685l-67 -1 1 -2 67 1 0 0 -1 1zm1 -2l0 0 0 0 0 0zm0 1l-1 1 0 0 0 0 0 0 0 0 0 0 0 0 0 0 0 0 0 0 1 -1 0 0 0 0 0 0 0 0 0 0 0 0 0 0 0 0 0 0zm47 338l-1 2 0 0 1 -3 0 -4 0 -5 -1 -6 -1 -7 -2 -7 -2 -8 -2 -9 -2 -9 -3 -10 -3 -10 -3 -11 -3 -11 -3 -12 -3 -12 -3 -12 -3 -13 -3 -13 -3 -13 -3 -13 -3 -13 -2 -13 -2 -13 -2 -13 -1 -13 -1 -13 0 -13 0 -12 1 -12 1 -12 2 -11 2 -11 1 -1 -2 11 -2 11 -1 12 -1 12 0 12 0 13 1 13 1 13 2 13 2 13 2 13 3 13 3 13 3 13 3 13 3 13 3 12 3 12 3 12 3 11 3 11 3 10 3 10 2 9 2 9 2 8 2 7 1 7 1 6 0 5 0 4 -1 3 0 0zm-1 2l0 0 0 0 0 0zm313 0l-313 0 1 -2 313 0 0 0 -1 2zm1 -2l0 2 -1 0 1 -2zm-6 -496l1 -1 0 0 5 18 4 17 4 17 3 17 2 17 2 16 2 16 1 16 1 16 0 16 0 15 0 15 0 15 -1 15 -1 15 -1 15 -1 15 -1 15 -1 15 -1 15 -1 15 -1 15 -1 15 -1 15 -1 15 -1 15 -1 15 -1 15 -1 15 0 16 0 16 0 16 -1 1 0 -16 0 -16 0 -16 1 -15 1 -15 1 -15 1 -15 1 -15 1 -15 1 -15 1 -15 1 -15 1 -15 1 -15 1 -15 1 -15 1 -15 1 -15 1 -15 0 -15 0 -15 0 -15 0 -16 -1 -16 -1 -16 -2 -16 -2 -16 -2 -17 -3 -17 -4 -17 -4 -17 -5 -18 0 0zm-132 -305l1 -1 0 0 3 9 3 9 3 9 4 9 4 9 4 9 4 9 4 9 4 9 4 9 4 9 5 9 5 9 5 9 5 9 5 9 5 9 5 9 5 9 5 9 5 10 5 10 4 10 4 10 4 10 4 10 4 10 4 11 4 11 4 11 3 11 3 11 -1 1 -3 -11 -3 -11 -4 -11 -4 -11 -4 -11 -4 -10 -4 -10 -4 -10 -4 -10 -4 -10 -5 -10 -5 -10 -5 -9 -5 -9 -5 -9 -5 -9 -5 -9 -5 -9 -5 -9 -5 -9 -5 -9 -4 -9 -4 -9 -4 -9 -4 -9 -4 -9 -4 -9 -4 -9 -4 -9 -3 -9 -3 -9 -3 -9 0 0zm-6 -217l1 -2 0 0 -1 8 -1 7 -1 7 -1 7 -1 7 -1 7 -1 7 -1 7 -1 7 0 7 0 7 0 7 0 7 0 7 0 7 0 7 0 7 0 7 0 7 0 7 0 7 1 7 1 6 1 6 1 6 1 6 1 6 1 6 1 6 2 6 2 6 2 6 -1 1 -2 -6 -2 -6 -2 -6 -1 -6 -1 -6 -1 -6 -1 -6 -1 -6 -1 -6 -1 -7 -1 -7 0 -7 0 -7 0 -7 0 -7 0 -7 0 -7 0 -7 0 -7 0 -7 0 -7 0 -7 0 -7 1 -7 1 -7 1 -7 1 -7 1 -7 1 -7 1 -7 1 -7 1 -8 0 0zm1 -2l0 0 0 0 0 0zm-482 1l482 -1 -1 2 -482 1 0 0 1 -2zm-1 2l0 -2 2 0 -1 2zm15 87l-1 1 0 0 0 -3 0 -3 0 -3 0 -3 0 -3 0 -3 0 -3 0 -3 0 -3 0 -3 0 -3 0 -3 -1 -3 -1 -3 -1 -3 -1 -3 -1 -3 -1 -3 -1 -3 -1 -3 -1 -3 -1 -3 -1 -3 -1 -3 -1 -3 -1 -3 -1 -3 -1 -3 0 -3 0 -3 0 -3 0 -3 1 -1 0 3 0 3 0 3 0 3 1 3 1 3 1 3 1 3 1 3 1 3 1 3 1 3 1 3 1 3 1 3 1 3 1 3 1 3 1 3 1 3 0 3 0 3 0 3 0 3 0 3 0 3 0 3 0 3 0 3 0 3 0 3 0 3 0 0zm-21 129l0 -1 0 0 2 -3 2 -3 2 -3 2 -3 2 -3 2 -3 1 -3 1 -4 1 -4 1 -4 1 -4 1 -4 1 -4 0 -4 0 -4 0 -4 0 -4 0 -4 0 -4 0 -4 0 -4 0 -4 0 -4 0 -4 0 -4 0 -4 0 -4 0 -4 0 -4 0 -4 0 -4 0 -4 1 -1 0 4 0 4 0 4 0 4 0 4 0 4 0 4 0 4 0 4 0 4 0 4 0 4 0 4 0 4 0 4 0 4 0 4 0 4 0 4 -1 4 -1 4 -1 4 -1 4 -1 4 -1 4 -1 4 -2 3 -2 3 -2 3 -2 3 -2 3 -3 3 0 0zm-177 388l-1 1 0 0 3 -10 3 -10 3 -11 3 -11 4 -12 4 -12 4 -13 4 -13 4 -13 5 -13 5 -14 5 -14 5 -14 5 -14 6 -14 6 -14 6 -14 6 -14 6 -14 6 -13 6 -13 7 -13 7 -13 7 -12 7 -12 7 -12 7 -11 7 -11 7 -10 7 -10 8 -9 8 -8 0 1 -7 8 -7 9 -7 9 -7 10 -7 10 -7 11 -7 11 -7 12 -7 12 -7 13 -7 13 -6 13 -6 13 -6 14 -6 14 -6 14 -6 14 -6 14 -5 14 -5 14 -5 14 -5 14 -5 13 -4 13 -4 13 -4 13 -4 12 -4 12 -3 11 -3 11 -3 10 -3 10 0 0zm-9 416l-1 2 0 0 1 -16 0 -15 0 -14 0 -14 0 -13 -1 -13 -1 -13 -1 -12 -1 -12 -1 -12 -1 -11 -1 -11 -1 -11 -1 -11 -1 -11 -1 -11 -1 -11 -1 -11 -1 -11 0 -11 0 -12 0 -12 0 -12 1 -13 1 -13 2 -14 2 -14 2 -15 3 -15 3 -16 4 -17 4 -18 1 -1 -4 18 -4 17 -3 16 -3 15 -2 15 -2 14 -2 14 -1 13 -1 13 0 12 0 12 0 12 0 11 1 11 1 11 1 11 1 11 1 11 1 11 1 11 1 11 1 11 1 12 1 12 1 12 1 13 1 13 0 13 0 14 0 14 0 15 -1 16 0 0zm-1 2l0 0 0 0 0 0zm343 0l-343 0 1 -2 343 0 0 0 -1 1zm1 -1l0 1 -1 0 1 -1zm-1 1l1 -1 0 0 0 0 0 0 0 0 -1 1 0 0 0 0 0 0 0 0 0 0 0 0 0 0 0 0 1 -1 0 0 0 0 0 0 -1 1 0 0 0 0 0 0 1 -1 0 0 0 0 0 0 0 0 0 0 0 0 0 0 0 0 -1 1 0 0 0 0 0 0 0 0zm50 -343l-1 2 1 -2 0 12 0 12 0 12 0 11 -1 11 -1 11 -1 11 -1 11 -1 10 -1 10 -1 10 -1 10 -1 10 -1 10 -1 10 -2 10 -2 10 -2 10 -2 10 -2 10 -2 10 -2 10 -2 10 -2 10 -2 11 -2 11 -2 11 -2 11 -3 11 -3 12 -3 12 -3 12 -1 1 3 -12 3 -12 3 -12 3 -11 2 -11 2 -11 2 -11 2 -11 2 -10 2 -10 2 -10 2 -10 2 -10 2 -10 2 -10 2 -10 2 -10 1 -10 1 -10 1 -10 1 -10 1 -10 1 -10 1 -10 1 -11 1 -11 1 -11 1 -11 0 -11 0 -12 0 -12 0 -12 1 -1zm-1 1l0 -2 1 0 -1 1z"/>
 </g>
</svg>
